<?xml version="1.0" standalone="no"?>
<!DOCTYPE svg PUBLIC "-//W3C//DTD SVG 20010904//EN"
 "http://www.w3.org/TR/2001/REC-SVG-20010904/DTD/svg10.dtd">
<svg version="1.0" xmlns="http://www.w3.org/2000/svg"
 width="64.000000pt" height="64.000000pt" viewBox="0 0 64.000000 64.000000"
 preserveAspectRatio="xMidYMid meet">

<g transform="translate(0.000000,64.000000) scale(0.100000,-0.100000)"
fill="#000000" stroke="none">
<path d="M263 590 c-209 -42 -291 -311 -140 -462 108 -108 285 -110 392 -3
107 107 105 284 -3 392 -61 62 -160 90 -249 73z m120 -74 c76 -31 112 -114 83
-189 -9 -24 -16 -53 -16 -65 0 -17 -10 -27 -35 -38 -19 -8 -35 -21 -35 -29 0
-28 -108 -24 -130 5 -8 10 -28 24 -44 30 -23 9 -27 14 -22 35 4 15 0 37 -9 55
-61 119 78 251 208 196z m-63 -366 c14 1 36 7 50 15 36 21 40 19 29 -14 -27
-76 -169 -58 -169 21 0 16 2 16 33 -2 17 -11 43 -20 57 -20z"/>
<path d="M222 338 c-17 -21 2 -40 34 -36 21 2 29 8 29 23 0 24 -46 33 -63 13z"/>
<path d="M354 335 c-9 -22 9 -37 37 -33 16 2 24 10 24 23 0 26 -52 35 -61 10z"/>
<path d="M306 294 c-10 -25 -7 -30 14 -30 11 0 20 3 20 7 0 15 -12 39 -20 39
-4 0 -11 -7 -14 -16z"/>
</g>
</svg>
